<svg xmlns="http://www.w3.org/2000/svg" xmlns:xlink="http://www.w3.org/1999/xlink" xmlns:svg="http://www.w3.org/2000/svg"><symbol id="icon-book" viewBox="0 0 475.452 475.451">
<g>
	<path style="fill:#222222;" d="M468.083,118.385c-3.99-5.33-9.61-9.419-16.854-12.275c0.387,6.665-0.086,12.09-1.42,16.281l-85.65,281.789
		c-1.526,4.948-4.859,8.897-9.992,11.848c-5.141,2.953-10.469,4.428-15.989,4.428H74.66c-22.84,0-36.542-6.652-41.112-19.985
		c-1.903-5.14-1.807-9.229,0.288-12.275c2.092-2.857,5.708-4.288,10.85-4.288h248.102c17.702,0,29.93-3.285,36.688-9.852
		c6.763-6.567,13.565-21.177,20.413-43.824l78.228-258.669c4.186-14.084,2.474-26.457-5.141-37.113s-18.462-15.987-32.548-15.987
		H173.163c-2.474,0-7.329,0.854-14.562,2.568l0.284-0.859c-5.33-1.14-9.851-1.662-13.562-1.571
		c-3.71,0.099-7.137,1.192-10.277,3.289c-3.14,2.094-5.664,4.328-7.566,6.706c-1.903,2.38-3.761,5.426-5.568,9.136
		c-1.805,3.715-3.33,7.142-4.567,10.282c-1.237,3.14-2.666,6.473-4.281,9.998c-1.62,3.521-3.186,6.423-4.71,8.706
		c-1.143,1.523-2.758,3.521-4.854,5.996c-2.091,2.474-3.805,4.664-5.137,6.567c-1.331,1.903-2.19,3.616-2.568,5.14
		c-0.378,1.711-0.19,4.233,0.571,7.566c0.76,3.328,1.047,5.753,0.854,7.277c-0.76,7.232-3.378,16.414-7.849,27.552
		c-4.471,11.136-8.52,19.18-12.135,24.126c-0.761,0.95-2.853,3.092-6.28,6.424c-3.427,3.33-5.52,6.23-6.279,8.704
		c-0.762,0.951-0.81,3.617-0.144,7.994c0.666,4.38,0.907,7.423,0.715,9.136c-0.765,6.473-3.14,15.037-7.139,25.697
		c-3.999,10.657-7.994,19.414-11.993,26.265c-0.569,1.141-2.185,3.328-4.853,6.567c-2.662,3.237-4.283,5.902-4.853,7.99
		c-0.38,1.523-0.33,4.188,0.144,7.994c0.473,3.806,0.426,6.66-0.144,8.562c-1.521,7.228-4.377,15.94-8.565,26.125
		c-4.187,10.178-8.47,18.896-12.851,26.121c-1.138,1.906-2.712,4.145-4.708,6.711c-1.999,2.566-3.568,4.805-4.711,6.707
		c-1.141,1.903-1.903,3.901-2.284,5.996c-0.19,1.143,0.098,2.998,0.859,5.571c0.76,2.566,1.047,4.612,0.854,6.14
		c-0.192,2.662-0.57,6.187-1.141,10.567c-0.572,4.373-0.859,6.939-0.859,7.699c-4.187,11.424-3.999,23.511,0.572,36.269
		c5.33,14.838,14.797,27.36,28.406,37.541c13.61,10.185,27.74,15.27,42.398,15.27h263.521c12.367,0,24.026-4.141,34.971-12.416
		c10.944-8.281,18.227-18.507,21.837-30.696l78.511-258.662C477.412,141.51,475.701,129.234,468.083,118.385z M164.31,118.956
		l5.997-18.274c0.76-2.474,2.329-4.615,4.709-6.423c2.38-1.805,4.808-2.712,7.282-2.712h173.589c2.663,0,4.565,0.903,5.708,2.712
		c1.14,1.809,1.335,3.949,0.575,6.423l-6.002,18.274c-0.764,2.475-2.327,4.611-4.713,6.424c-2.382,1.805-4.805,2.708-7.278,2.708
		H170.593c-2.666,0-4.568-0.9-5.711-2.708C163.74,123.567,163.55,121.431,164.31,118.956z M140.615,192.045l5.996-18.271
		c0.76-2.474,2.331-4.615,4.709-6.423c2.38-1.809,4.805-2.712,7.282-2.712h173.583c2.666,0,4.572,0.9,5.712,2.712
		c1.14,1.809,1.331,3.949,0.568,6.423l-5.996,18.271c-0.759,2.474-2.33,4.617-4.708,6.423c-2.383,1.809-4.805,2.712-7.283,2.712
		H146.895c-2.664,0-4.567-0.9-5.708-2.712C140.043,196.662,139.854,194.519,140.615,192.045z"/>
</g>
<g>
</g>
<g>
</g>
<g>
</g>
<g>
</g>
<g>
</g>
<g>
</g>
<g>
</g>
<g>
</g>
<g>
</g>
<g>
</g>
<g>
</g>
<g>
</g>
<g>
</g>
<g>
</g>
<g>
</g>
</symbol><symbol id="icon-calc" viewBox="0 0 16 16">
<g>
	<path style="fill:#222222;" d="M12.997,0H3.003C2.449,0,2,0.444,2,1.001v13.998C2,15.552,2.456,16,3.003,16h9.994
		C13.551,16,14,15.556,14,14.999V1.001C14,0.448,13.544,0,12.997,0z M6,14H4v-2h2V14z M6,11H4V9h2V11z M6,8H4V6h2V8z M9,14H7v-2h2
		V14z M9,11H7V9h2V11z M9,8H7V6h2V8z M12,14h-2v-2h2V14z M12,11h-2V9h2V11z M12,8h-2V6h2V8z M13,4H3V1h10V4z"/>
</g>
<g>
</g>
<g>
</g>
<g>
</g>
<g>
</g>
<g>
</g>
<g>
</g>
<g>
</g>
<g>
</g>
<g>
</g>
<g>
</g>
<g>
</g>
<g>
</g>
<g>
</g>
<g>
</g>
<g>
</g>
</symbol><symbol id="icon-comp" viewBox="0 0 24 24">
<g>
	<g id="Layer_1_100_">
		<path style="fill:#222222;" d="M21,1.5H3c-1.654,0-3,1.346-3,3v11c0,1.654,1.346,3,3,3h6v2H6c-0.552,0-1,0.448-1,1s0.448,1,1,1h12
			c0.552,0,1-0.448,1-1s-0.448-1-1-1h-3v-2h6c1.654,0,3-1.346,3-3v-11C24,2.846,22.654,1.5,21,1.5z M14,20.5h-4v-2h4V20.5z M22,15.5
			c0,0.551-0.449,1-1,1H3c-0.551,0-1-0.449-1-1v-11c0-0.551,0.449-1,1-1h18c0.551,0,1,0.449,1,1V15.5z"/>
		<path style="fill:#222222;" d="M20,4.5H4c-0.55,0-1,0.45-1,1v8c0,0.55,0.45,1,1,1h16c0.55,0,1-0.45,1-1v-8
			C21,4.95,20.55,4.5,20,4.5z M20,13.5H4v-8h16V13.5z"/>
	</g>
</g>
<g>
</g>
<g>
</g>
<g>
</g>
<g>
</g>
<g>
</g>
<g>
</g>
<g>
</g>
<g>
</g>
<g>
</g>
<g>
</g>
<g>
</g>
<g>
</g>
<g>
</g>
<g>
</g>
<g>
</g>
</symbol><symbol id="icon-loupe">
 <g>
  <title>Layer 1</title>
  <g stroke="null" id="search_1_">
   <g stroke="null" id="svg_1">
    <path fill="#b4b4b5" stroke="null" id="svg_2" d="m32.5,30c2.494,-3.129 4,-7.654 4,-12c0,-10.05 -8.139,-18 -18,-18c-9.862,0 -18,7.95 -18,18c0,10.05 8.138,18 18,18c4.193,0 7.953,-1.534 11,-4l11,12l3,-3l-11,-11zm-14,2c-7.658,0 -14,-6.196 -14,-14c0,-7.804 6.342,-14 14,-14c7.658,0 14,6.196 14,14c0,7.804 -6.342,14 -14,14z"/>
   </g>
  </g>
 </g>
</symbol><symbol id="icon-people" viewBox="0 0 85.988 85.987">
<g>
	<path style="fill:#222222;" d="M77.993,30.884c-2.692,0-4.878,2.185-4.878,4.868c0,2.685,2.186,4.867,4.878,4.867
		c2.683,0,4.867-2.183,4.867-4.867C82.86,33.069,80.675,30.884,77.993,30.884z M8.005,30.884c-2.692,0-4.878,2.185-4.878,4.868
		c0,2.685,2.186,4.867,4.878,4.867c2.685,0,4.87-2.183,4.87-4.867C12.875,33.069,10.69,30.884,8.005,30.884z M63.504,22.03
		c-3.997,0-7.239,3.25-7.239,7.25c0,3.992,3.242,7.236,7.239,7.236c3.998,0,7.25-3.244,7.25-7.236
		C70.754,25.284,67.502,22.03,63.504,22.03z M85.988,66.088h-8.254V50.896c0-2.61-0.767-5.033-1.999-7.146
		c0.726-0.212,1.471-0.363,2.258-0.363c4.401,0,7.995,3.594,7.995,8.006V66.088z M22.483,22.03c-4,0-7.25,3.25-7.25,7.25
		c0,3.992,3.25,7.236,7.25,7.236c3.987,0,7.237-3.244,7.237-7.236C29.72,25.284,26.471,22.03,22.483,22.03z M8.005,43.387
		c0.787,0,1.522,0.15,2.25,0.363c-1.245,2.113-1.999,4.536-1.999,7.146v15.192H0V51.393C0,46.98,3.596,43.387,8.005,43.387z
		 M42.986,7.555c-5.9,0-10.71,4.805-10.71,10.711c0,5.905,4.805,10.716,10.71,10.716c5.906,0,10.717-4.811,10.717-10.716
		C53.708,12.359,48.892,7.555,42.986,7.555z M75.083,71.742H62.438V48.627c0-3.179-0.839-6.136-2.195-8.787
		c1.035-0.306,2.123-0.523,3.262-0.523c6.38,0,11.578,5.188,11.578,11.579V71.742z M23.537,48.627v23.115H10.908V50.896
		c0-6.385,5.191-11.579,11.581-11.579c1.139,0,2.216,0.217,3.249,0.523C24.381,42.491,23.537,45.448,23.537,48.627z M26.188,78.433
		h33.598V48.627c0-9.264-7.539-16.798-16.801-16.798c-9.269,0-16.797,7.534-16.797,16.798V78.433z"/>
</g>
<g>
</g>
<g>
</g>
<g>
</g>
<g>
</g>
<g>
</g>
<g>
</g>
<g>
</g>
<g>
</g>
<g>
</g>
<g>
</g>
<g>
</g>
<g>
</g>
<g>
</g>
<g>
</g>
<g>
</g>
</symbol></svg>