<svg width="44" height="44" xmlns="http://www.w3.org/2000/svg" xmlns:svg="http://www.w3.org/2000/svg">
 <g>
  <title>Layer 1</title>
  <g stroke="null" id="search_1_">
   <g stroke="null" id="svg_1">
    <path fill="#b4b4b5" stroke="null" id="svg_2" d="m32.5,30c2.494,-3.129 4,-7.654 4,-12c0,-10.05 -8.139,-18 -18,-18c-9.862,0 -18,7.95 -18,18c0,10.05 8.138,18 18,18c4.193,0 7.953,-1.534 11,-4l11,12l3,-3l-11,-11zm-14,2c-7.658,0 -14,-6.196 -14,-14c0,-7.804 6.342,-14 14,-14c7.658,0 14,6.196 14,14c0,7.804 -6.342,14 -14,14z"/>
   </g>
  </g>
 </g>
</svg>
